<svg width="32" height="32" viewBox="0 0 32 32" fill="none" xmlns="http://www.w3.org/2000/svg">
<path d="M15.9998 9.33301C16.7362 9.33301 17.3332 9.92997 17.3332 10.6663V17.333C17.3332 18.0694 16.7362 18.6663 15.9998 18.6663C15.2634 18.6663 14.6665 18.0694 14.6665 17.333V10.6663C14.6665 9.92997 15.2634 9.33301 15.9998 9.33301Z" fill="#10623C"/>
<path d="M15.9998 22.6667C16.7362 22.6667 17.3332 22.0697 17.3332 21.3333C17.3332 20.5969 16.7362 20 15.9998 20C15.2634 20 14.6665 20.5969 14.6665 21.3333C14.6665 22.0697 15.2634 22.6667 15.9998 22.6667Z" fill="#10623C"/>
<path fill-rule="evenodd" clip-rule="evenodd" d="M15.9998 2.66699C8.63604 2.66699 2.6665 8.63653 2.6665 16.0003C2.6665 23.3641 8.63604 29.3337 15.9998 29.3337C23.3636 29.3337 29.3332 23.3641 29.3332 16.0003C29.3332 8.63653 23.3636 2.66699 15.9998 2.66699ZM5.33317 16.0003C5.33317 10.1093 10.1088 5.33366 15.9998 5.33366C21.8909 5.33366 26.6665 10.1093 26.6665 16.0003C26.6665 21.8914 21.8909 26.667 15.9998 26.667C10.1088 26.667 5.33317 21.8914 5.33317 16.0003Z" fill="#10623C"/>
</svg>
