<svg width="48" height="48" viewBox="0 0 48 48" fill="none" xmlns="http://www.w3.org/2000/svg">
<rect width="48" height="48" rx="12" fill="#F65656"/>
<path d="M18.1877 20.2448C17.6197 19.6767 17.6197 18.7558 18.1877 18.1878C18.7558 17.6197 19.6767 17.6197 20.2448 18.1878L24.0086 21.9516L27.7686 18.1916C28.3367 17.6235 29.2576 17.6235 29.8256 18.1916C30.3938 18.7596 30.3938 19.6806 29.8256 20.2486L26.0656 24.0086L29.8242 27.767C30.3922 28.3352 30.3922 29.256 29.8242 29.824C29.256 30.3922 28.3351 30.3922 27.767 29.824L24.0086 26.0656L20.249 29.8254C19.681 30.3934 18.76 30.3934 18.192 29.8254C17.6239 29.2572 17.6239 28.3363 18.192 27.7682L21.9516 24.0086L18.1877 20.2448Z" fill="#FFEFEF"/>
<path fill-rule="evenodd" clip-rule="evenodd" d="M40 24C40 32.8365 32.8365 40 24 40C15.1634 40 8 32.8365 8 24C8 15.1634 15.1634 8 24 8C32.8365 8 40 15.1634 40 24ZM10.919 24C10.919 31.2244 16.7756 37.081 24 37.081C31.2244 37.081 37.081 31.2244 37.081 24C37.081 16.7756 31.2244 10.919 24 10.919C16.7756 10.919 10.919 16.7756 10.919 24Z" fill="#FFEFEF"/>
</svg>
