<svg width="32" height="32" viewBox="0 0 32 32" fill="none" xmlns="http://www.w3.org/2000/svg">
<path d="M16.0003 9.33301C16.7367 9.33301 17.3337 9.92997 17.3337 10.6663V17.333C17.3337 18.0694 16.7367 18.6663 16.0003 18.6663C15.2639 18.6663 14.667 18.0694 14.667 17.333V10.6663C14.667 9.92997 15.2639 9.33301 16.0003 9.33301Z" fill="#165329"/>
<path d="M16.0003 22.6667C16.7367 22.6667 17.3337 22.0697 17.3337 21.3333C17.3337 20.5969 16.7367 20 16.0003 20C15.2639 20 14.667 20.5969 14.667 21.3333C14.667 22.0697 15.2639 22.6667 16.0003 22.6667Z" fill="#165329"/>
<path fill-rule="evenodd" clip-rule="evenodd" d="M16.0003 2.66699C8.63653 2.66699 2.66699 8.63653 2.66699 16.0003C2.66699 23.3641 8.63653 29.3337 16.0003 29.3337C23.3641 29.3337 29.3337 23.3641 29.3337 16.0003C29.3337 8.63653 23.3641 2.66699 16.0003 2.66699ZM5.33366 16.0003C5.33366 10.1093 10.1093 5.33366 16.0003 5.33366C21.8914 5.33366 26.667 10.1093 26.667 16.0003C26.667 21.8914 21.8914 26.667 16.0003 26.667C10.1093 26.667 5.33366 21.8914 5.33366 16.0003Z" fill="#165329"/>
</svg>
