<svg width="48" height="48" viewBox="0 0 48 48" fill="none" xmlns="http://www.w3.org/2000/svg">
<rect width="48" height="48" rx="12" fill="#1C9E51"/>
<path d="M24 8C20.8355 8 17.7421 8.93838 15.1109 10.6965C12.4797 12.4546 10.4289 14.9534 9.21793 17.8771C8.00693 20.8007 7.69008 24.0177 8.30744 27.1214C8.92481 30.2251 10.4487 33.0761 12.6863 35.3137C14.9239 37.5513 17.7749 39.0752 20.8786 39.6926C23.9823 40.3099 27.1993 39.9931 30.1229 38.7821C33.0466 37.5711 35.5454 35.5203 37.3035 32.8891C39.0616 30.2579 40 27.1645 40 24C39.995 19.7581 38.3077 15.6913 35.3082 12.6918C32.3087 9.69232 28.2419 8.005 24 8ZM24 37.0909C21.4109 37.0909 18.8799 36.3231 16.7271 34.8847C14.5743 33.4462 12.8964 31.4017 11.9056 29.0097C10.9148 26.6176 10.6555 23.9855 11.1606 21.4461C11.6658 18.9067 12.9125 16.5741 14.7433 14.7433C16.5741 12.9125 18.9067 11.6657 21.4461 11.1606C23.9855 10.6555 26.6176 10.9148 29.0097 11.9056C31.4017 12.8964 33.4462 14.5743 34.8847 16.7271C36.3231 18.8799 37.0909 21.4109 37.0909 24C37.0867 27.4706 35.7061 30.7979 33.252 33.252C30.7979 35.7061 27.4706 37.0867 24 37.0909ZM32.3447 19.3804C32.4739 19.5211 32.574 19.686 32.6394 19.8654C32.7049 20.0449 32.7343 20.2355 32.7261 20.4264C32.7178 20.6172 32.6721 20.8046 32.5914 20.9778C32.5108 21.1509 32.3968 21.3065 32.256 21.4356L23.5287 29.4356C23.2524 29.689 22.889 29.8259 22.5141 29.8178C22.1393 29.8096 21.7822 29.6571 21.5171 29.392L17.1535 25.0284C16.8807 24.7554 16.7276 24.3853 16.7277 23.9995C16.7278 23.6136 16.8813 23.2436 17.1542 22.9709C17.4271 22.6982 17.7972 22.545 18.1831 22.5452C18.5689 22.5453 18.9389 22.6987 19.2116 22.9716L22.5905 26.3505L30.2909 19.2916C30.5751 19.0313 30.9511 18.8944 31.3362 18.911C31.7213 18.9277 32.084 19.0965 32.3447 19.3804Z" fill="#DCEDC8"/>
</svg>
